<svg width="250" height="84" viewBox="0 0 250 84" fill="none" xmlns="http://www.w3.org/2000/svg">
<path d="M23.895 6.825C24.435 6.825 24.825 7.02 25.065 7.41C25.335 7.8 25.47 8.25 25.47 8.76C25.47 9.27 25.335 9.72 25.065 10.11C24.825 10.5 24.435 10.695 23.895 10.695H15.255V37.155C15.255 37.815 15.03 38.295 14.58 38.595C14.13 38.895 13.605 39.045 13.005 39.045C12.405 39.045 11.88 38.895 11.43 38.595C10.98 38.295 10.755 37.815 10.755 37.155V10.695H2.16C1.59 10.695 1.17 10.5 0.9 10.11C0.66 9.72 0.54 9.27 0.54 8.76C0.54 8.25 0.66 7.8 0.9 7.41C1.17 7.02 1.59 6.825 2.16 6.825H23.895Z" fill="#FF5000"/>
<path d="M32.0006 6.06C32.8406 6.06 33.5456 6.345 34.1156 6.915C34.6856 7.455 34.9706 8.115 34.9706 8.895C34.9706 9.705 34.6856 10.395 34.1156 10.965C33.5456 11.505 32.8406 11.775 32.0006 11.775C31.1606 11.775 30.4556 11.505 29.8856 10.965C29.3156 10.395 29.0306 9.705 29.0306 8.895C29.0306 8.115 29.3156 7.455 29.8856 6.915C30.4556 6.345 31.1606 6.06 32.0006 6.06ZM32.0006 14.97C32.6006 14.97 33.1106 15.12 33.5306 15.42C33.9806 15.72 34.2056 16.185 34.2056 16.815V37.2C34.2056 37.83 33.9806 38.295 33.5306 38.595C33.1106 38.895 32.6006 39.045 32.0006 39.045C31.4306 39.045 30.9206 38.895 30.4706 38.595C30.0206 38.295 29.7956 37.83 29.7956 37.2V16.815C29.7956 16.185 30.0206 15.72 30.4706 15.42C30.9206 15.12 31.4306 14.97 32.0006 14.97Z" fill="#FFD241"/>
<path d="M53.4038 14.655C56.1038 14.655 58.2038 15.42 59.7038 16.95C61.2038 18.45 61.9538 20.61 61.9538 23.43V37.2C61.9538 37.83 61.7288 38.295 61.2788 38.595C60.8288 38.895 60.3188 39.045 59.7488 39.045C59.1788 39.045 58.6688 38.895 58.2188 38.595C57.7688 38.295 57.5438 37.83 57.5438 37.2V24.465C57.5438 22.305 57.0638 20.79 56.1038 19.92C55.1738 19.02 53.8538 18.57 52.1438 18.57C51.3338 18.57 50.5538 18.72 49.8038 19.02C49.0838 19.29 48.4388 19.68 47.8688 20.19C47.3288 20.7 46.8938 21.33 46.5638 22.08C46.2338 22.8 46.0688 23.625 46.0688 24.555V37.2C46.0688 37.83 45.8438 38.295 45.3938 38.595C44.9438 38.895 44.4188 39.045 43.8188 39.045C43.2488 39.045 42.7388 38.895 42.2888 38.595C41.8388 38.295 41.6138 37.83 41.6138 37.2V16.77C41.6138 16.14 41.8238 15.69 42.2438 15.42C42.6938 15.12 43.1888 14.97 43.7288 14.97C44.2688 14.97 44.7488 15.12 45.1688 15.42C45.6188 15.69 45.8438 16.14 45.8438 16.77V18.345H45.9338C46.5038 17.295 47.4638 16.425 48.8138 15.735C50.1638 15.015 51.6938 14.655 53.4038 14.655Z" fill="#9632A5"/>
<path d="M71.2406 5.475C71.8406 5.475 72.3656 5.625 72.8156 5.925C73.2656 6.225 73.4906 6.69 73.4906 7.32V25.905L84.1556 15.6C84.6056 15.15 85.1306 14.94 85.7306 14.97C86.3306 15 86.8256 15.225 87.2156 15.645C87.6356 16.095 87.8456 16.59 87.8456 17.13C87.8756 17.67 87.6356 18.15 87.1256 18.57L79.9706 25.095L88.4306 35.535C88.8506 36.045 89.0006 36.57 88.8806 37.11C88.7906 37.65 88.5356 38.1 88.1156 38.46C87.6356 38.88 87.0956 39.075 86.4956 39.045C85.9256 39.045 85.4456 38.79 85.0556 38.28L76.8656 27.84L73.4906 30.9V37.2C73.4906 37.83 73.2656 38.295 72.8156 38.595C72.3656 38.895 71.8406 39.045 71.2406 39.045C70.6706 39.045 70.1606 38.895 69.7106 38.595C69.2606 38.295 69.0356 37.83 69.0356 37.2V7.32C69.0356 6.69 69.2606 6.225 69.7106 5.925C70.1606 5.625 70.6706 5.475 71.2406 5.475Z" fill="#73DCFF"/>
<path d="M103.661 14.97C106.751 14.97 109.181 15.9 110.951 17.76C112.751 19.59 113.651 22.2 113.651 25.59V25.68C113.651 26.55 113.456 27.18 113.066 27.57C112.676 27.96 112.001 28.155 111.041 28.155H96.686V28.38C96.686 31.08 97.316 33.09 98.576 34.41C99.866 35.73 101.681 36.39 104.021 36.39C105.431 36.39 106.661 36.255 107.711 35.985C108.791 35.685 109.811 35.25 110.771 34.68C111.161 34.47 111.521 34.425 111.851 34.545C112.181 34.635 112.436 34.86 112.616 35.22C112.796 35.58 112.841 35.94 112.751 36.3C112.691 36.63 112.481 36.915 112.121 37.155C111.101 37.755 109.901 38.25 108.521 38.64C107.171 39 105.611 39.18 103.841 39.18C100.631 39.18 98.096 38.25 96.236 36.39C94.406 34.53 93.491 31.74 93.491 28.02V26.13C93.491 22.44 94.406 19.665 96.236 17.805C98.096 15.915 100.571 14.97 103.661 14.97ZM103.661 17.715C101.501 17.715 99.791 18.39 98.531 19.74C97.301 21.06 96.686 22.935 96.686 25.365V25.59H110.501V25.23C110.501 22.83 109.901 20.985 108.701 19.695C107.531 18.375 105.851 17.715 103.661 17.715ZM130.228 14.97C131.248 14.97 132.118 15.105 132.838 15.375C133.558 15.675 133.798 16.26 133.558 17.13C133.318 18.15 132.763 18.57 131.893 18.39C131.563 18.33 131.203 18.27 130.813 18.21C130.423 18.12 130.018 18.075 129.598 18.075C128.638 18.075 127.768 18.27 126.988 18.66C126.238 19.05 125.593 19.59 125.053 20.28C124.543 20.97 124.153 21.795 123.883 22.755C123.613 23.685 123.478 24.705 123.478 25.815V37.65C123.478 38.13 123.313 38.475 122.983 38.685C122.653 38.895 122.278 39 121.858 39C121.438 39 121.063 38.895 120.733 38.685C120.403 38.475 120.238 38.13 120.238 37.65V16.59C120.238 16.14 120.388 15.81 120.688 15.6C121.018 15.39 121.393 15.285 121.813 15.285C122.233 15.285 122.593 15.39 122.893 15.6C123.223 15.81 123.388 16.14 123.388 16.59V19.74H123.433C123.643 19.17 123.943 18.6 124.333 18.03C124.753 17.46 125.248 16.95 125.818 16.5C126.388 16.05 127.033 15.69 127.753 15.42C128.503 15.12 129.328 14.97 130.228 14.97ZM136.856 15.42C137.276 15.27 137.681 15.24 138.071 15.33C138.491 15.42 138.776 15.705 138.926 16.185L146.171 35.22H146.216L153.326 16.185C153.506 15.705 153.791 15.42 154.181 15.33C154.571 15.24 154.961 15.27 155.351 15.42C155.711 15.57 155.996 15.81 156.206 16.14C156.446 16.44 156.461 16.845 156.251 17.355L148.331 37.425C148.091 37.995 147.776 38.4 147.386 38.64C147.026 38.88 146.606 39 146.126 39C145.646 39 145.211 38.895 144.821 38.685C144.461 38.445 144.161 38.04 143.921 37.47L135.911 17.355C135.701 16.845 135.716 16.44 135.956 16.14C136.196 15.81 136.496 15.57 136.856 15.42ZM170.238 14.97C173.328 14.97 175.758 15.9 177.528 17.76C179.328 19.59 180.228 22.2 180.228 25.59V25.68C180.228 26.55 180.033 27.18 179.643 27.57C179.253 27.96 178.578 28.155 177.618 28.155H163.263V28.38C163.263 31.08 163.893 33.09 165.153 34.41C166.443 35.73 168.258 36.39 170.598 36.39C172.008 36.39 173.238 36.255 174.288 35.985C175.368 35.685 176.388 35.25 177.348 34.68C177.738 34.47 178.098 34.425 178.428 34.545C178.758 34.635 179.013 34.86 179.193 35.22C179.373 35.58 179.418 35.94 179.328 36.3C179.268 36.63 179.058 36.915 178.698 37.155C177.678 37.755 176.478 38.25 175.098 38.64C173.748 39 172.188 39.18 170.418 39.18C167.208 39.18 164.673 38.25 162.813 36.39C160.983 34.53 160.068 31.74 160.068 28.02V26.13C160.068 22.44 160.983 19.665 162.813 17.805C164.673 15.915 167.148 14.97 170.238 14.97ZM170.238 17.715C168.078 17.715 166.368 18.39 165.108 19.74C163.878 21.06 163.263 22.935 163.263 25.365V25.59H177.078V25.23C177.078 22.83 176.478 20.985 175.278 19.695C174.108 18.375 172.428 17.715 170.238 17.715ZM196.805 14.97C197.825 14.97 198.695 15.105 199.415 15.375C200.135 15.675 200.375 16.26 200.135 17.13C199.895 18.15 199.34 18.57 198.47 18.39C198.14 18.33 197.78 18.27 197.39 18.21C197 18.12 196.595 18.075 196.175 18.075C195.215 18.075 194.345 18.27 193.565 18.66C192.815 19.05 192.17 19.59 191.63 20.28C191.12 20.97 190.73 21.795 190.46 22.755C190.19 23.685 190.055 24.705 190.055 25.815V37.65C190.055 38.13 189.89 38.475 189.56 38.685C189.23 38.895 188.855 39 188.435 39C188.015 39 187.64 38.895 187.31 38.685C186.98 38.475 186.815 38.13 186.815 37.65V16.59C186.815 16.14 186.965 15.81 187.265 15.6C187.595 15.39 187.97 15.285 188.39 15.285C188.81 15.285 189.17 15.39 189.47 15.6C189.8 15.81 189.965 16.14 189.965 16.59V19.74H190.01C190.22 19.17 190.52 18.6 190.91 18.03C191.33 17.46 191.825 16.95 192.395 16.5C192.965 16.05 193.61 15.69 194.33 15.42C195.08 15.12 195.905 14.97 196.805 14.97ZM212.838 14.97C214.368 14.97 215.733 15.135 216.933 15.465C218.163 15.765 219.213 16.17 220.083 16.68C220.473 16.92 220.713 17.22 220.803 17.58C220.893 17.91 220.833 18.27 220.623 18.66C220.443 18.99 220.203 19.215 219.903 19.335C219.603 19.455 219.258 19.41 218.868 19.2C218.058 18.75 217.158 18.39 216.168 18.12C215.178 17.85 214.098 17.715 212.928 17.715C210.948 17.715 209.508 18.06 208.608 18.75C207.708 19.41 207.258 20.235 207.258 21.225V21.36C207.258 21.87 207.348 22.32 207.528 22.71C207.708 23.1 208.023 23.445 208.473 23.745C208.923 24.045 209.523 24.33 210.273 24.6C211.053 24.84 212.043 25.065 213.243 25.275C214.893 25.605 216.273 25.965 217.383 26.355C218.493 26.715 219.378 27.165 220.038 27.705C220.698 28.245 221.163 28.89 221.433 29.64C221.703 30.39 221.838 31.29 221.838 32.34V32.61C221.838 33.54 221.628 34.41 221.208 35.22C220.788 36.03 220.188 36.735 219.408 37.335C218.628 37.905 217.668 38.355 216.528 38.685C215.418 39.015 214.158 39.18 212.748 39.18C211.008 39.18 209.403 38.955 207.933 38.505C206.463 38.055 205.248 37.53 204.288 36.93C203.898 36.69 203.673 36.39 203.613 36.03C203.553 35.64 203.613 35.28 203.793 34.95C204.033 34.56 204.318 34.32 204.648 34.23C204.978 34.11 205.353 34.17 205.773 34.41C206.643 34.95 207.678 35.415 208.878 35.805C210.108 36.195 211.398 36.39 212.748 36.39C214.728 36.39 216.198 36.03 217.158 35.31C218.148 34.59 218.643 33.675 218.643 32.565V32.43C218.643 31.83 218.568 31.32 218.418 30.9C218.268 30.45 217.953 30.075 217.473 29.775C217.023 29.445 216.363 29.16 215.493 28.92C214.623 28.65 213.468 28.38 212.028 28.11C209.268 27.6 207.243 26.85 205.953 25.86C204.693 24.84 204.063 23.385 204.063 21.495V21.18C204.063 20.34 204.243 19.545 204.603 18.795C204.963 18.045 205.503 17.385 206.223 16.815C206.943 16.245 207.843 15.795 208.923 15.465C210.033 15.135 211.338 14.97 212.838 14.97ZM236.903 14.97C239.993 14.97 242.423 15.9 244.193 17.76C245.993 19.59 246.893 22.2 246.893 25.59V25.68C246.893 26.55 246.698 27.18 246.308 27.57C245.918 27.96 245.243 28.155 244.283 28.155H229.928V28.38C229.928 31.08 230.558 33.09 231.818 34.41C233.108 35.73 234.923 36.39 237.263 36.39C238.673 36.39 239.903 36.255 240.953 35.985C242.033 35.685 243.053 35.25 244.013 34.68C244.403 34.47 244.763 34.425 245.093 34.545C245.423 34.635 245.678 34.86 245.858 35.22C246.038 35.58 246.083 35.94 245.993 36.3C245.933 36.63 245.723 36.915 245.363 37.155C244.343 37.755 243.143 38.25 241.763 38.64C240.413 39 238.853 39.18 237.083 39.18C233.873 39.18 231.338 38.25 229.478 36.39C227.648 34.53 226.733 31.74 226.733 28.02V26.13C226.733 22.44 227.648 19.665 229.478 17.805C231.338 15.915 233.813 14.97 236.903 14.97ZM236.903 17.715C234.743 17.715 233.033 18.39 231.773 19.74C230.543 21.06 229.928 22.935 229.928 25.365V25.59H243.743V25.23C243.743 22.83 243.143 20.985 241.943 19.695C240.773 18.375 239.093 17.715 236.903 17.715Z" fill="black"/>
<path d="M17.4785 60.1975C17.7605 60.1975 17.9642 60.2993 18.0895 60.503C18.2305 60.7067 18.301 60.9417 18.301 61.208C18.301 61.4743 18.2305 61.7093 18.0895 61.913C17.9642 62.1167 17.7605 62.2185 17.4785 62.2185H12.9665V76.0365C12.9665 76.3812 12.849 76.6318 12.614 76.7885C12.379 76.9452 12.1048 77.0235 11.7915 77.0235C11.4782 77.0235 11.204 76.9452 10.969 76.7885C10.734 76.6318 10.6165 76.3812 10.6165 76.0365V62.2185H6.128C5.83033 62.2185 5.611 62.1167 5.47 61.913C5.34467 61.7093 5.282 61.4743 5.282 61.208C5.282 60.9417 5.34467 60.7067 5.47 60.503C5.611 60.2993 5.83033 60.1975 6.128 60.1975H17.4785ZM25.5184 64.451C27.2104 64.451 28.5499 64.9445 29.5369 65.9315C30.5239 66.9185 31.0174 68.3677 31.0174 70.279V71.266C31.0174 73.1773 30.5239 74.6265 29.5369 75.6135C28.5499 76.6005 27.2104 77.094 25.5184 77.094C23.8108 77.094 22.4634 76.6083 21.4764 75.637C20.4894 74.65 19.9959 73.193 19.9959 71.266V70.279C19.9959 68.352 20.4894 66.9028 21.4764 65.9315C22.4634 64.9445 23.8108 64.451 25.5184 64.451ZM25.5184 65.955C24.2964 65.955 23.3486 66.3075 22.6749 67.0125C22.0169 67.7175 21.6879 68.8377 21.6879 70.373V71.172C21.6879 72.7073 22.0169 73.8275 22.6749 74.5325C23.3486 75.2375 24.2964 75.59 25.5184 75.59C26.7248 75.59 27.6569 75.2375 28.3149 74.5325C28.9886 73.8275 29.3254 72.7073 29.3254 71.172V70.373C29.3254 68.8377 28.9886 67.7175 28.3149 67.0125C27.6569 66.3075 26.7248 65.955 25.5184 65.955ZM39.8033 64.451C40.806 64.451 41.605 64.6625 42.2003 65.0855C42.8113 65.5085 43.2265 66.049 43.4458 66.707C43.8062 66.049 44.3153 65.5085 44.9733 65.0855C45.6313 64.6625 46.4773 64.451 47.5113 64.451C48.2163 64.451 48.8273 64.5607 49.3443 64.78C49.877 64.9993 50.3157 65.3048 50.6603 65.6965C51.005 66.0882 51.2635 66.5582 51.4358 67.1065C51.6082 67.6392 51.6943 68.2188 51.6943 68.8455V76.295C51.6943 76.5457 51.6003 76.7258 51.4123 76.8355C51.24 76.9452 51.0442 77 50.8248 77C50.6055 77 50.4097 76.9452 50.2373 76.8355C50.0807 76.7258 50.0023 76.5457 50.0023 76.295V69.245C50.0023 68.1327 49.7752 67.3102 49.3208 66.7775C48.8665 66.2292 48.138 65.955 47.1353 65.955C46.6027 65.955 46.1327 66.049 45.7253 66.237C45.3337 66.425 44.9968 66.6678 44.7148 66.9655C44.4485 67.2632 44.2448 67.6 44.1038 67.976C43.9785 68.3363 43.9158 68.7045 43.9158 69.0805V76.295C43.9158 76.5457 43.8297 76.7258 43.6573 76.8355C43.485 76.9452 43.2891 77 43.0698 77C42.8505 77 42.6547 76.9452 42.4823 76.8355C42.31 76.7258 42.2238 76.5457 42.2238 76.295V69.245C42.2238 68.1483 41.9967 67.3258 41.5423 66.7775C41.1037 66.2292 40.3673 65.955 39.3333 65.955C38.785 65.955 38.315 66.0568 37.9233 66.2605C37.5316 66.4485 37.2026 66.6913 36.9363 66.989C36.67 67.2867 36.4742 67.6235 36.3488 67.9995C36.2235 68.3598 36.1608 68.7123 36.1608 69.057V76.295C36.1608 76.5457 36.0746 76.7258 35.9023 76.8355C35.73 76.9452 35.5341 77 35.3148 77C35.0955 77 34.8996 76.9452 34.7273 76.8355C34.555 76.7258 34.4688 76.5457 34.4688 76.295V65.297C34.4688 65.062 34.5471 64.8897 34.7038 64.78C34.8761 64.6703 35.0641 64.6155 35.2678 64.6155C35.4871 64.6155 35.6751 64.6703 35.8318 64.78C36.0041 64.8897 36.0903 65.062 36.0903 65.297V66.566C36.2313 66.2997 36.4115 66.0412 36.6308 65.7905C36.8501 65.5242 37.1086 65.297 37.4063 65.109C37.7196 64.9053 38.0721 64.7487 38.4638 64.639C38.8555 64.5137 39.302 64.451 39.8033 64.451ZM60.5389 64.451C62.2309 64.451 63.5704 64.9445 64.5574 65.9315C65.5444 66.9185 66.0379 68.3677 66.0379 70.279V71.266C66.0379 73.1773 65.5444 74.6265 64.5574 75.6135C63.5704 76.6005 62.2309 77.094 60.5389 77.094C58.8313 77.094 57.4839 76.6083 56.4969 75.637C55.5099 74.65 55.0164 73.193 55.0164 71.266V70.279C55.0164 68.352 55.5099 66.9028 56.4969 65.9315C57.4839 64.9445 58.8313 64.451 60.5389 64.451ZM60.5389 65.955C59.3169 65.955 58.3691 66.3075 57.6954 67.0125C57.0374 67.7175 56.7084 68.8377 56.7084 70.373V71.172C56.7084 72.7073 57.0374 73.8275 57.6954 74.5325C58.3691 75.2375 59.3169 75.59 60.5389 75.59C61.7453 75.59 62.6774 75.2375 63.3354 74.5325C64.0091 73.8275 64.3459 72.7073 64.3459 71.172V70.373C64.3459 68.8377 64.0091 67.7175 63.3354 67.0125C62.6774 66.3075 61.7453 65.955 60.5389 65.955ZM74.7063 64.451C75.239 64.451 75.6933 64.5215 76.0693 64.6625C76.4453 64.8192 76.5707 65.1247 76.4453 65.579C76.32 66.1117 76.0302 66.331 75.5758 66.237C75.4035 66.2057 75.2155 66.1743 75.0118 66.143C74.8082 66.096 74.5967 66.0725 74.3773 66.0725C73.876 66.0725 73.4217 66.1743 73.0143 66.378C72.6227 66.5817 72.2858 66.8637 72.0038 67.224C71.7375 67.5843 71.5338 68.0152 71.3928 68.5165C71.2518 69.0022 71.1813 69.5348 71.1813 70.1145V76.295C71.1813 76.5457 71.0952 76.7258 70.9228 76.8355C70.7505 76.9452 70.5547 77 70.3353 77C70.116 77 69.9202 76.9452 69.7478 76.8355C69.5755 76.7258 69.4893 76.5457 69.4893 76.295V65.297C69.4893 65.062 69.5677 64.8897 69.7243 64.78C69.8967 64.6703 70.0925 64.6155 70.3118 64.6155C70.5312 64.6155 70.7192 64.6703 70.8758 64.78C71.0482 64.8897 71.1343 65.062 71.1343 65.297V66.942H71.1578C71.2675 66.6443 71.4242 66.3467 71.6278 66.049C71.8472 65.7513 72.1057 65.485 72.4033 65.25C72.701 65.015 73.0378 64.827 73.4138 64.686C73.8055 64.5293 74.2363 64.451 74.7063 64.451ZM84.2303 64.451C84.7629 64.451 85.2173 64.5215 85.5933 64.6625C85.9693 64.8192 86.0946 65.1247 85.9693 65.579C85.8439 66.1117 85.5541 66.331 85.0998 66.237C84.9274 66.2057 84.7394 66.1743 84.5358 66.143C84.3321 66.096 84.1206 66.0725 83.9013 66.0725C83.3999 66.0725 82.9456 66.1743 82.5383 66.378C82.1466 66.5817 81.8098 66.8637 81.5278 67.224C81.2614 67.5843 81.0578 68.0152 80.9168 68.5165C80.7758 69.0022 80.7053 69.5348 80.7053 70.1145V76.295C80.7053 76.5457 80.6191 76.7258 80.4468 76.8355C80.2744 76.9452 80.0786 77 79.8593 77C79.6399 77 79.4441 76.9452 79.2718 76.8355C79.0994 76.7258 79.0133 76.5457 79.0133 76.295V65.297C79.0133 65.062 79.0916 64.8897 79.2483 64.78C79.4206 64.6703 79.6164 64.6155 79.8358 64.6155C80.0551 64.6155 80.2431 64.6703 80.3998 64.78C80.5721 64.8897 80.6583 65.062 80.6583 65.297V66.942H80.6818C80.7914 66.6443 80.9481 66.3467 81.1518 66.049C81.3711 65.7513 81.6296 65.485 81.9273 65.25C82.2249 65.015 82.5618 64.827 82.9378 64.686C83.3294 64.5293 83.7603 64.451 84.2303 64.451ZM93.3334 64.451C95.0254 64.451 96.3649 64.9445 97.3519 65.9315C98.3389 66.9185 98.8324 68.3677 98.8324 70.279V71.266C98.8324 73.1773 98.3389 74.6265 97.3519 75.6135C96.3649 76.6005 95.0254 77.094 93.3334 77.094C91.6257 77.094 90.2784 76.6083 89.2914 75.637C88.3044 74.65 87.8109 73.193 87.8109 71.266V70.279C87.8109 68.352 88.3044 66.9028 89.2914 65.9315C90.2784 64.9445 91.6257 64.451 93.3334 64.451ZM93.3334 65.955C92.1114 65.955 91.1635 66.3075 90.4899 67.0125C89.8319 67.7175 89.5029 68.8377 89.5029 70.373V71.172C89.5029 72.7073 89.8319 73.8275 90.4899 74.5325C91.1635 75.2375 92.1114 75.59 93.3334 75.59C94.5397 75.59 95.4719 75.2375 96.1299 74.5325C96.8035 73.8275 97.1404 72.7073 97.1404 71.172V70.373C97.1404 68.8377 96.8035 67.7175 96.1299 67.0125C95.4719 66.3075 94.5397 65.955 93.3334 65.955ZM109.241 64.6155C109.774 64.6155 110.111 64.8818 110.252 65.4145L113.213 75.0965H113.26L115.821 65.2265C115.9 64.9445 116.025 64.7643 116.197 64.686C116.385 64.6077 116.597 64.592 116.832 64.639C117.067 64.7017 117.239 64.8192 117.349 64.9915C117.459 65.1482 117.474 65.3597 117.396 65.626L114.435 76.107C114.278 76.7023 113.894 77 113.283 77C112.672 77 112.289 76.7023 112.132 76.107L109.265 66.8245H109.194L106.351 76.1305C106.194 76.7102 105.81 77 105.199 77C104.573 77 104.181 76.7102 104.024 76.1305L101.016 65.6495C100.875 65.1012 101.071 64.7643 101.604 64.639C101.855 64.592 102.074 64.6077 102.262 64.686C102.466 64.7643 102.599 64.9523 102.661 65.25L105.246 75.0965H105.293L108.207 65.438C108.286 65.156 108.411 64.9523 108.583 64.827C108.771 64.686 108.991 64.6155 109.241 64.6155ZM127.302 60.08C127.616 60.08 127.89 60.1583 128.125 60.315C128.376 60.4717 128.501 60.7223 128.501 61.067V76.0365C128.501 76.3812 128.376 76.6318 128.125 76.7885C127.89 76.9452 127.616 77.0235 127.302 77.0235C126.989 77.0235 126.715 76.9452 126.48 76.7885C126.245 76.6318 126.127 76.3812 126.127 76.0365V61.067C126.127 60.7223 126.245 60.4717 126.48 60.315C126.715 60.1583 126.989 60.08 127.302 60.08ZM136.642 64.451C137.441 64.451 138.154 64.5372 138.781 64.7095C139.423 64.8662 139.971 65.0777 140.426 65.344C140.629 65.4693 140.755 65.626 140.802 65.814C140.849 65.9863 140.817 66.1743 140.708 66.378C140.614 66.5503 140.488 66.6678 140.332 66.7305C140.175 66.7932 139.995 66.7697 139.791 66.66C139.368 66.425 138.898 66.237 138.381 66.096C137.864 65.955 137.3 65.8845 136.689 65.8845C135.655 65.8845 134.903 66.0647 134.433 66.425C133.963 66.7697 133.728 67.2005 133.728 67.7175V67.788C133.728 68.0543 133.775 68.2893 133.869 68.493C133.963 68.6967 134.128 68.8768 134.363 69.0335C134.598 69.1902 134.911 69.339 135.303 69.48C135.71 69.6053 136.227 69.7228 136.854 69.8325C137.715 70.0048 138.436 70.1928 139.016 70.3965C139.595 70.5845 140.058 70.8195 140.402 71.1015C140.747 71.3835 140.99 71.7203 141.131 72.112C141.272 72.5037 141.342 72.9737 141.342 73.522V73.663C141.342 74.1487 141.233 74.603 141.013 75.026C140.794 75.449 140.481 75.8172 140.073 76.1305C139.666 76.4282 139.165 76.6632 138.569 76.8355C137.99 77.0078 137.332 77.094 136.595 77.094C135.687 77.094 134.848 76.9765 134.081 76.7415C133.313 76.5065 132.679 76.2323 132.177 75.919C131.974 75.7937 131.856 75.637 131.825 75.449C131.793 75.2453 131.825 75.0573 131.919 74.885C132.044 74.6813 132.193 74.556 132.365 74.509C132.538 74.4463 132.733 74.4777 132.953 74.603C133.407 74.885 133.948 75.1278 134.574 75.3315C135.217 75.5352 135.89 75.637 136.595 75.637C137.629 75.637 138.397 75.449 138.898 75.073C139.415 74.697 139.674 74.2192 139.674 73.6395V73.569C139.674 73.2557 139.635 72.9893 139.556 72.77C139.478 72.535 139.313 72.3392 139.063 72.1825C138.828 72.0102 138.483 71.8613 138.029 71.736C137.574 71.595 136.971 71.454 136.219 71.313C134.778 71.0467 133.72 70.655 133.047 70.138C132.389 69.6053 132.06 68.8455 132.06 67.8585V67.694C132.06 67.2553 132.154 66.8402 132.342 66.4485C132.53 66.0568 132.812 65.7122 133.188 65.4145C133.564 65.1168 134.034 64.8818 134.598 64.7095C135.177 64.5372 135.859 64.451 136.642 64.451ZM161.923 60.08C162.205 60.08 162.456 60.1583 162.675 60.315C162.91 60.456 163.028 60.691 163.028 61.02V75.2375C163.028 75.8955 162.902 76.3498 162.652 76.6005C162.401 76.8355 161.978 76.953 161.383 76.953C161.163 76.953 160.968 76.9373 160.795 76.906C160.639 76.859 160.482 76.7728 160.325 76.6475C160.169 76.5222 160.004 76.342 159.832 76.107C159.659 75.872 159.464 75.5587 159.244 75.167L153.557 65.3205C153.369 64.9758 153.189 64.6233 153.017 64.263C152.86 63.9027 152.719 63.5032 152.594 63.0645V76.0835C152.594 76.4125 152.476 76.6553 152.241 76.812C152.022 76.953 151.771 77.0235 151.489 77.0235C151.207 77.0235 150.949 76.953 150.714 76.812C150.494 76.6553 150.385 76.4125 150.385 76.0835V61.866C150.385 61.208 150.51 60.7615 150.761 60.5265C151.011 60.2758 151.434 60.1505 152.03 60.1505C152.249 60.1505 152.445 60.174 152.617 60.221C152.79 60.2523 152.946 60.3307 153.087 60.456C153.244 60.5813 153.408 60.7615 153.581 60.9965C153.753 61.2315 153.949 61.5448 154.168 61.9365L159.855 71.783C160.059 72.1277 160.239 72.4802 160.396 72.8405C160.568 73.2008 160.717 73.6003 160.842 74.039V61.02C160.842 60.691 160.952 60.456 161.171 60.315C161.391 60.1583 161.641 60.08 161.923 60.08ZM171.98 64.451C173.672 64.451 175.012 64.9445 175.999 65.9315C176.986 66.9185 177.479 68.3677 177.479 70.279V71.266C177.479 73.1773 176.986 74.6265 175.999 75.6135C175.012 76.6005 173.672 77.094 171.98 77.094C170.273 77.094 168.925 76.6083 167.938 75.637C166.951 74.65 166.458 73.193 166.458 71.266V70.279C166.458 68.352 166.951 66.9028 167.938 65.9315C168.925 64.9445 170.273 64.451 171.98 64.451ZM171.98 65.955C170.758 65.955 169.811 66.3075 169.137 67.0125C168.479 67.7175 168.15 68.8377 168.15 70.373V71.172C168.15 72.7073 168.479 73.8275 169.137 74.5325C169.811 75.2375 170.758 75.59 171.98 75.59C173.187 75.59 174.119 75.2375 174.777 74.5325C175.451 73.8275 175.787 72.7073 175.787 71.172V70.373C175.787 68.8377 175.451 67.7175 174.777 67.0125C174.119 66.3075 173.187 65.955 171.98 65.955ZM187.888 64.6155C188.421 64.6155 188.758 64.8818 188.899 65.4145L191.86 75.0965H191.907L194.468 65.2265C194.547 64.9445 194.672 64.7643 194.844 64.686C195.032 64.6077 195.244 64.592 195.479 64.639C195.714 64.7017 195.886 64.8192 195.996 64.9915C196.106 65.1482 196.121 65.3597 196.043 65.626L193.082 76.107C192.925 76.7023 192.541 77 191.93 77C191.319 77 190.936 76.7023 190.779 76.107L187.912 66.8245H187.841L184.998 76.1305C184.841 76.7102 184.457 77 183.846 77C183.22 77 182.828 76.7102 182.671 76.1305L179.663 65.6495C179.522 65.1012 179.718 64.7643 180.251 64.639C180.502 64.592 180.721 64.6077 180.909 64.686C181.113 64.7643 181.246 64.9523 181.308 65.25L183.893 75.0965H183.94L186.854 65.438C186.933 65.156 187.058 64.9523 187.23 64.827C187.418 64.686 187.638 64.6155 187.888 64.6155ZM198.74 74.979C199.053 75.026 199.28 75.1592 199.421 75.3785C199.562 75.5822 199.578 75.8407 199.468 76.154L198.317 79.9845C198.238 80.2195 198.121 80.3762 197.964 80.4545C197.807 80.5485 197.627 80.5798 197.424 80.5485C196.985 80.4858 196.805 80.2195 196.883 79.7495L197.518 75.778C197.565 75.449 197.706 75.2218 197.941 75.0965C198.176 74.9712 198.442 74.932 198.74 74.979ZM210.218 60.08C210.531 60.08 210.805 60.1583 211.04 60.315C211.291 60.4717 211.416 60.7223 211.416 61.067V68.352L218.983 60.3855C219.187 60.1662 219.438 60.0643 219.735 60.08C220.033 60.0957 220.276 60.2132 220.464 60.4325C220.683 60.6362 220.809 60.879 220.84 61.161C220.871 61.4273 220.777 61.6702 220.558 61.8895L214.988 67.6235L221.122 75.167C221.357 75.449 221.451 75.731 221.404 76.013C221.357 76.295 221.2 76.5378 220.934 76.7415C220.699 76.9452 220.433 77.0392 220.135 77.0235C219.837 77.0235 219.579 76.8825 219.359 76.6005L213.437 69.1275L211.416 71.1955V76.0365C211.416 76.3812 211.291 76.6318 211.04 76.7885C210.805 76.9452 210.531 77.0235 210.218 77.0235C209.905 77.0235 209.63 76.9452 209.395 76.7885C209.16 76.6318 209.043 76.3812 209.043 76.0365V61.067C209.043 60.7223 209.16 60.4717 209.395 60.315C209.63 60.1583 209.905 60.08 210.218 60.08ZM225.45 60.1505C225.811 60.1505 226.108 60.268 226.343 60.503C226.578 60.738 226.696 61.0278 226.696 61.3725C226.696 61.7015 226.578 61.9835 226.343 62.2185C226.108 62.4535 225.811 62.571 225.45 62.571C225.09 62.571 224.792 62.4535 224.557 62.2185C224.322 61.9835 224.205 61.7015 224.205 61.3725C224.205 61.0278 224.322 60.738 224.557 60.503C224.792 60.268 225.09 60.1505 225.45 60.1505ZM225.45 64.6155C225.67 64.6155 225.865 64.6703 226.038 64.78C226.21 64.8897 226.296 65.0698 226.296 65.3205V76.295C226.296 76.5457 226.21 76.7258 226.038 76.8355C225.865 76.9452 225.67 77 225.45 77C225.231 77 225.035 76.9452 224.863 76.8355C224.69 76.7258 224.604 76.5457 224.604 76.295V65.3205C224.604 65.0698 224.69 64.8897 224.863 64.78C225.035 64.6703 225.231 64.6155 225.45 64.6155ZM239.432 59.516C239.651 59.516 239.847 59.5708 240.02 59.6805C240.192 59.7902 240.278 59.9703 240.278 60.221V76.3185C240.278 76.5535 240.192 76.7258 240.02 76.8355C239.863 76.9452 239.675 77 239.456 77C239.252 77 239.064 76.9452 238.892 76.8355C238.735 76.7258 238.657 76.5535 238.657 76.3185V75.0025H238.61C238.296 75.6448 237.787 76.154 237.082 76.53C236.393 76.906 235.602 77.094 234.709 77.094C233.095 77.094 231.873 76.6083 231.043 75.637C230.228 74.65 229.821 73.193 229.821 71.266V70.279C229.821 68.3207 230.275 66.8637 231.184 65.908C232.108 64.9367 233.338 64.451 234.873 64.451C235.75 64.451 236.51 64.6077 237.153 64.921C237.811 65.2343 238.288 65.6338 238.586 66.1195V60.221C238.586 59.9703 238.672 59.7902 238.845 59.6805C239.017 59.5708 239.213 59.516 239.432 59.516ZM235.014 65.9315C233.917 65.9315 233.056 66.284 232.429 66.989C231.802 67.694 231.489 68.822 231.489 70.373V71.172C231.489 72.6917 231.771 73.8118 232.335 74.5325C232.915 75.2532 233.792 75.6135 234.967 75.6135C235.437 75.6135 235.884 75.5352 236.307 75.3785C236.745 75.2062 237.137 74.9633 237.482 74.65C237.826 74.3367 238.1 73.9607 238.304 73.522C238.508 73.0677 238.61 72.5663 238.61 72.018V68.775C238.61 68.4147 238.523 68.0622 238.351 67.7175C238.194 67.3728 237.959 67.0673 237.646 66.801C237.333 66.5347 236.949 66.3232 236.495 66.1665C236.056 66.0098 235.562 65.9315 235.014 65.9315ZM245.678 59.7275C245.96 59.7275 246.188 59.798 246.36 59.939C246.532 60.0643 246.618 60.268 246.618 60.55L246.407 71.9945C246.407 72.2608 246.336 72.4567 246.195 72.582C246.054 72.6917 245.882 72.7465 245.678 72.7465C245.459 72.7465 245.279 72.6917 245.138 72.582C245.013 72.4567 244.942 72.2608 244.926 71.9945L244.738 60.55C244.723 60.268 244.801 60.0643 244.973 59.939C245.161 59.798 245.396 59.7275 245.678 59.7275ZM245.678 75.0025C246.039 75.0025 246.344 75.1357 246.595 75.402C246.861 75.6527 246.994 75.9582 246.994 76.3185C246.994 76.6788 246.861 76.9843 246.595 77.235C246.344 77.4857 246.039 77.611 245.678 77.611C245.302 77.611 244.989 77.4857 244.738 77.235C244.488 76.9843 244.362 76.6788 244.362 76.3185C244.362 75.9582 244.488 75.6527 244.738 75.402C244.989 75.1357 245.302 75.0025 245.678 75.0025Z" fill="black"/>
</svg>
